<svg version="1.1" xmlns="http://www.w3.org/2000/svg" viewBox="0 0 1274 624" width="2548" height="1248">
  <!-- svg-source:excalidraw -->
  
  <defs>
    <style class="style-fonts">
      @font-face {
        font-family: "Virgil";
        src: url("https://excalidraw.com/Virgil.woff2");
      }
      @font-face {
        font-family: "Cascadia";
        src: url("https://excalidraw.com/Cascadia.woff2");
      }
      @font-face {
        font-family: "Assistant";
        src: url("https://excalidraw.com/Assistant-Regular.woff2");
      }
    </style>
    
  </defs>
  <rect x="0" y="0" width="1274" height="624" fill="#ffffff"></rect><g stroke-linecap="round" transform="translate(333 299) rotate(0 117.5 70.5)"><path d="M60.83 7.3 C72.36 2.1, 90.92 -0.47, 106.07 -1.36 C121.22 -2.25, 137.33 -0.58, 151.75 1.95 C166.16 4.49, 181.12 7.78, 192.56 13.85 C204 19.93, 213.66 30.26, 220.36 38.41 C227.07 46.56, 230.92 54, 232.81 62.74 C234.7 71.49, 236 82.06, 231.69 90.86 C227.39 99.66, 216.53 108.63, 206.97 115.53 C197.42 122.44, 187.1 128.34, 174.35 132.3 C161.6 136.26, 145.23 138.18, 130.46 139.29 C115.7 140.4, 100.31 141.25, 85.76 138.97 C71.21 136.7, 55.01 131.7, 43.17 125.66 C31.33 119.61, 21.86 110.72, 14.72 102.73 C7.57 94.73, 1.98 86.31, 0.3 77.68 C-1.37 69.05, 0.59 59.46, 4.68 50.94 C8.78 42.42, 11.8 34.51, 24.85 26.55 C37.91 18.58, 68.64 7.16, 83 3.15 C97.37 -0.86, 110.07 1.37, 111.05 2.49" stroke="none" stroke-width="0" fill="#a5d8ff"></path><path d="M106.68 2 C121.21 0.15, 139.91 0.59, 154.51 3.01 C169.1 5.43, 183.27 10.37, 194.25 16.53 C205.23 22.68, 213.55 31.63, 220.39 39.92 C227.22 48.2, 233.82 57.82, 235.29 66.23 C236.76 74.65, 234.11 81.86, 229.21 90.42 C224.32 98.98, 215.81 110.43, 205.9 117.59 C196 124.75, 182.97 129.62, 169.78 133.38 C156.58 137.14, 141.26 139.2, 126.73 140.17 C112.21 141.13, 96.49 141.48, 82.62 139.17 C68.76 136.86, 54.97 132.53, 43.57 126.29 C32.16 120.06, 21.11 109.91, 14.17 101.78 C7.24 93.66, 3.66 86.12, 1.95 77.56 C0.25 69, -0.35 59.17, 3.96 50.44 C8.26 41.71, 17.94 32.34, 27.79 25.2 C37.63 18.07, 43.75 11.63, 63.04 7.63 C82.33 3.63, 124.54 0.4, 143.51 1.21 C162.48 2.03, 177.18 11.57, 176.86 12.53" stroke="#1e1e1e" stroke-width="2.5" fill="none" stroke-dasharray="8 10"></path></g><g transform="translate(376.02091787122515 347.1489719263484) rotate(0 74.39403533935547 22.5)"><text x="74.39403533935547" y="0" font-family="Virgil, Segoe UI Emoji" font-size="36px" fill="#1e1e1e" text-anchor="middle" style="white-space: pre;" direction="ltr" dominant-baseline="text-before-edge">Internet</text></g><g stroke-linecap="round" transform="translate(134 245) rotate(0 81 36)"><path d="M18 0 C46 -4.06, 86.35 -6.53, 144 0 C155.42 1.03, 157.29 7.46, 162 18 C162.63 23.86, 160.68 32.91, 162 54 C165.13 64.04, 152.81 67.63, 144 72 C119.81 69.08, 92.16 73.84, 18 72 C3.99 69.92, -2.45 69.7, 0 54 C-1.49 46.94, -5.92 37.02, 0 18 C0.89 0.54, 7.56 -2.53, 18 0" stroke="none" stroke-width="0" fill="#ffc9c9"></path><path d="M18 0 C57.46 -1.63, 90.91 0.37, 144 0 M18 0 C53.98 0.04, 87.34 -2.98, 144 0 M144 0 C159.07 2.2, 158.85 8.64, 162 18 M144 0 C156.22 0.37, 160.89 5.42, 162 18 M162 18 C164.44 28.57, 158.39 38, 162 54 M162 18 C160.98 26.97, 160.43 38.07, 162 54 M162 54 C158.52 67.57, 154.07 74.09, 144 72 M162 54 C157.65 64.99, 159.45 68.42, 144 72 M144 72 C105.42 73.6, 75.7 71.99, 18 72 M144 72 C102.22 73.85, 59.05 74.69, 18 72 M18 72 C3.27 71.34, -0.27 65.64, 0 54 M18 72 C7.18 68.8, 1.05 62.14, 0 54 M0 54 C1.23 43.16, -3.22 33.78, 0 18 M0 54 C0.78 42.69, -1.44 28.41, 0 18 M0 18 C1.97 6.05, 9.06 0.84, 18 0 M0 18 C2.62 7.49, 6.87 3.08, 18 0" stroke="#1e1e1e" stroke-width="2" fill="none"></path></g><g transform="translate(166.3099822998047 258.5) rotate(0 48.69001770019531 22.5)"><text x="48.69001770019531" y="0" font-family="Virgil, Segoe UI Emoji" font-size="36px" fill="#1e1e1e" text-anchor="middle" style="white-space: pre;" direction="ltr" dominant-baseline="text-before-edge">Client</text></g><g stroke-linecap="round" transform="translate(115 334) rotate(0 81 36)"><path d="M18 0 C52.93 1.86, 89.01 -2.68, 144 0 C159.67 -4.96, 167.31 7.45, 162 18 C166.07 28.22, 165.88 39.07, 162 54 C164.17 68.08, 153.56 71.91, 144 72 C111.54 69.41, 69.85 72.07, 18 72 C3.66 73.01, -3.9 61.32, 0 54 C1.73 48.95, 0.78 37.9, 0 18 C4.28 4.37, 8.85 4.61, 18 0" stroke="none" stroke-width="0" fill="#ffc9c9"></path><path d="M18 0 C47.15 3.38, 82.32 -1.19, 144 0 M18 0 C66.72 0.03, 118.25 -0.54, 144 0 M144 0 C158.99 -3.38, 161.47 6.81, 162 18 M144 0 C151.76 -0.49, 162.73 1.51, 162 18 M162 18 C159.37 30.53, 163.52 38.15, 162 54 M162 18 C159.99 23.94, 162.37 34.27, 162 54 M162 54 C164.39 66.35, 155.83 71.63, 144 72 M162 54 C164.38 66.85, 153.2 71.51, 144 72 M144 72 C104.5 69.11, 56.71 74.21, 18 72 M144 72 C99.41 73.69, 52.93 70.53, 18 72 M18 72 C9.36 70.11, -2.96 67.19, 0 54 M18 72 C9.32 70.95, 0.42 62.3, 0 54 M0 54 C-3.05 44.81, 1.74 41.14, 0 18 M0 54 C-1.94 45.38, -0.51 39.04, 0 18 M0 18 C0.25 9.13, 5.26 -1.55, 18 0 M0 18 C3.04 5.36, 8.83 0.64, 18 0" stroke="#1e1e1e" stroke-width="2" fill="none"></path></g><g transform="translate(147.3099822998047 347.5) rotate(0 48.69001770019531 22.5)"><text x="48.69001770019531" y="0" font-family="Virgil, Segoe UI Emoji" font-size="36px" fill="#1e1e1e" text-anchor="middle" style="white-space: pre;" direction="ltr" dominant-baseline="text-before-edge">Client</text></g><g stroke-linecap="round" transform="translate(136 425) rotate(0 81 36)"><path d="M18 0 C54.1 -4.4, 96.34 -6.35, 144 0 C158.54 1.76, 161.69 3.44, 162 18 C157.05 27.41, 163.69 41.16, 162 54 C161.28 64.88, 160.18 69.95, 144 72 C111.96 74.82, 94.24 78.52, 18 72 C2.99 68.7, 0.12 69.31, 0 54 C-2.83 43.17, 2.08 26.65, 0 18 C3.11 5.27, 4.4 5.17, 18 0" stroke="none" stroke-width="0" fill="#ffc9c9"></path><path d="M18 0 C62.14 -0.72, 115.98 -4.08, 144 0 M18 0 C45.3 1.74, 72.85 3.98, 144 0 M144 0 C153.75 2.76, 160.83 2.18, 162 18 M144 0 C160.23 3.43, 157.71 9.43, 162 18 M162 18 C161.45 29.72, 165.36 48.85, 162 54 M162 18 C162.67 30.27, 163.89 42.46, 162 54 M162 54 C162.56 69.95, 155.54 74.28, 144 72 M162 54 C165.44 67.66, 155.13 70.85, 144 72 M144 72 C104.73 73.08, 69.35 71.51, 18 72 M144 72 C111.67 71.33, 83.17 71.05, 18 72 M18 72 C7.63 72.08, 1.86 67.41, 0 54 M18 72 C5.12 76.37, -4.54 64.69, 0 54 M0 54 C-1.58 38.84, 1.17 28.2, 0 18 M0 54 C-1.94 41.32, 0.33 26.05, 0 18 M0 18 C-0.66 2.82, 7.01 -3.98, 18 0 M0 18 C-1.93 7.53, 2.73 3.3, 18 0" stroke="#1e1e1e" stroke-width="2" fill="none"></path></g><g transform="translate(168.3099822998047 438.5) rotate(0 48.69001770019531 22.5)"><text x="48.69001770019531" y="0" font-family="Virgil, Segoe UI Emoji" font-size="36px" fill="#1e1e1e" text-anchor="middle" style="white-space: pre;" direction="ltr" dominant-baseline="text-before-edge">Client</text></g><g stroke-linecap="round" transform="translate(696 319) rotate(0 84.5 50)"><path d="M25 0 C50.26 -3.48, 82.41 4.51, 144 0 C165.95 -1.46, 173.61 2.83, 169 25 C166.26 37.95, 172.51 57.66, 169 75 C169.37 89.52, 165.44 97.73, 144 100 C98.83 100.03, 54.01 104.94, 25 100 C5.13 94.93, 0.66 96.22, 0 75 C0.99 61.19, -6.07 40.42, 0 25 C5.21 5.64, 11.02 0.39, 25 0" stroke="none" stroke-width="0" fill="#ffec99"></path><path d="M25 0 C61.18 1.1, 95.56 -0.91, 144 0 M25 0 C47.64 -0.78, 72.33 -0.09, 144 0 M144 0 C164.16 -1.92, 165.68 5.17, 169 25 M144 0 C157.6 2.59, 170.38 7.05, 169 25 M169 25 C168.54 37.53, 169.42 50.04, 169 75 M169 25 C170.54 39.08, 170.5 50.45, 169 75 M169 75 C169.6 89.11, 163.96 99.82, 144 100 M169 75 C169.86 90.78, 158.45 101.09, 144 100 M144 100 C112.44 96.05, 83.09 103.65, 25 100 M144 100 C115.74 99.63, 89.79 97.2, 25 100 M25 100 C11.63 100.51, 2.38 93.26, 0 75 M25 100 C6.59 104.39, -0.34 93.45, 0 75 M0 75 C-0.21 67.14, -0.01 51.04, 0 25 M0 75 C0.43 61.18, -0.34 49.96, 0 25 M0 25 C-2.2 10.97, 6.32 -2.77, 25 0 M0 25 C2.64 11.74, 12.22 -0.42, 25 0" stroke="#1e1e1e" stroke-width="2" fill="none"></path></g><g transform="translate(727.9759826660156 346.5) rotate(0 52.524017333984375 22.5)"><text x="52.524017333984375" y="0" font-family="Virgil, Segoe UI Emoji" font-size="36px" fill="#1e1e1e" text-anchor="middle" style="white-space: pre;" direction="ltr" dominant-baseline="text-before-edge">Caddy</text></g><g stroke-linecap="round" transform="translate(985 322) rotate(0 92 50)"><path d="M25 0 C66.67 -5.85, 102.87 3.06, 159 0 C172.1 5.4, 188.55 4.73, 184 25 C186.79 35.51, 187.25 49.29, 184 75 C181.94 95.03, 176.05 95.67, 159 100 C132.6 106.88, 107.14 104.52, 25 100 C13 94.75, 5.3 93.66, 0 75 C-2.65 63.79, -0.16 42.88, 0 25 C0.77 10.51, 9.37 -1, 25 0" stroke="none" stroke-width="0" fill="#a5d8ff"></path><path d="M25 0 C67.35 -4.48, 106.2 -1.57, 159 0 M25 0 C73.48 3.49, 119.98 2.58, 159 0 M159 0 C173.88 -2.14, 185.58 4.97, 184 25 M159 0 C174.47 -0.94, 182.22 9.34, 184 25 M184 25 C181.5 40.91, 182 49.63, 184 75 M184 25 C185.56 34.59, 182.71 47.69, 184 75 M184 75 C180.11 91.04, 175.3 96.58, 159 100 M184 75 C187.16 90.18, 173.14 96.53, 159 100 M159 100 C116.19 98.54, 77.79 96.9, 25 100 M159 100 C117.65 102.01, 73.66 101.45, 25 100 M25 100 C5.18 103.9, 2.68 88.71, 0 75 M25 100 C4.06 95.83, -0.19 93.2, 0 75 M0 75 C-1.31 63.22, -3.29 47.83, 0 25 M0 75 C1.22 62.37, 2.3 47.52, 0 25 M0 25 C1.92 8.42, 6.25 0.55, 25 0 M0 25 C2.65 4.54, 4.57 -3.95, 25 0" stroke="#1e1e1e" stroke-width="2" fill="none"></path></g><g transform="translate(1004.9099655151367 327) rotate(0 72.09003448486328 45)"><text x="72.09003448486328" y="0" font-family="Virgil, Segoe UI Emoji" font-size="36px" fill="#1e1e1e" text-anchor="middle" style="white-space: pre;" direction="ltr" dominant-baseline="text-before-edge">Docker</text><text x="72.09003448486328" y="45" font-family="Virgil, Segoe UI Emoji" font-size="36px" fill="#1e1e1e" text-anchor="middle" style="white-space: pre;" direction="ltr" dominant-baseline="text-before-edge">Lighttpd</text></g><g stroke-linecap="round"><g transform="translate(297 277) rotate(0 33 22)"><path d="M-0.95 -1.12 C10.09 6.21, 54.38 37.21, 65.42 44.91 M0.75 0.9 C12.27 7.83, 56.65 36.2, 67.82 43.27" stroke="#1e1e1e" stroke-width="2" fill="none"></path></g><g transform="translate(297 277) rotate(0 33 22)"><path d="M43.41 37.88 C47.17 38.33, 56.15 39.3, 67.82 43.27 M43.41 37.88 C52.13 39.78, 63.49 42.62, 67.82 43.27" stroke="#1e1e1e" stroke-width="2" fill="none"></path></g><g transform="translate(297 277) rotate(0 33 22)"><path d="M52.58 23.45 C54.36 27.13, 61.23 31.41, 67.82 43.27 M52.58 23.45 C57.82 31.07, 65.6 39.56, 67.82 43.27" stroke="#1e1e1e" stroke-width="2" fill="none"></path></g></g><mask></mask><g stroke-linecap="round"><g transform="translate(277 369) rotate(0 28 -1)"><path d="M-0.74 1.09 C8.84 0.78, 47.65 -0.46, 56.93 -0.98 M1.07 0.62 C10.63 -0.09, 47.11 -2.35, 56.48 -2.56" stroke="#1e1e1e" stroke-width="2" fill="none"></path></g><g transform="translate(277 369) rotate(0 28 -1)"><path d="M33.4 7.04 C40.95 6.33, 46.63 0.61, 56.48 -2.56 M33.4 7.04 C40.75 4.19, 46.7 0.29, 56.48 -2.56" stroke="#1e1e1e" stroke-width="2" fill="none"></path></g><g transform="translate(277 369) rotate(0 28 -1)"><path d="M32.62 -10.04 C40.5 -6.46, 46.37 -7.88, 56.48 -2.56 M32.62 -10.04 C40.37 -7.77, 46.55 -6.53, 56.48 -2.56" stroke="#1e1e1e" stroke-width="2" fill="none"></path></g></g><mask></mask><g stroke-linecap="round"><g transform="translate(298 465) rotate(0 34.5 -23.5)"><path d="M0.74 0.61 C12.38 -7.5, 57.3 -40.04, 68.76 -47.98 M-0.33 -0.12 C11.22 -8.16, 56.13 -39.36, 67.69 -46.96" stroke="#1e1e1e" stroke-width="2" fill="none"></path></g><g transform="translate(298 465) rotate(0 34.5 -23.5)"><path d="M53.05 -26.69 C57.04 -31.44, 57.47 -34.42, 67.69 -46.96 M53.05 -26.69 C56.73 -33.14, 60.99 -37.93, 67.69 -46.96" stroke="#1e1e1e" stroke-width="2" fill="none"></path></g><g transform="translate(298 465) rotate(0 34.5 -23.5)"><path d="M43.45 -40.84 C49.54 -42.67, 51.99 -42.68, 67.69 -46.96 M43.45 -40.84 C49.99 -43.09, 57.11 -43.66, 67.69 -46.96" stroke="#1e1e1e" stroke-width="2" fill="none"></path></g></g><mask></mask><g stroke-linecap="round"><g transform="translate(569.0921171884793 371.5580518030831) rotate(0 62.45394140576042 0.766159261917494)"><path d="M0.99 0.67 C21.52 0.67, 103.18 0.13, 123.85 0.41 M0.05 -0.03 C20.88 0.04, 105.3 1.28, 126.01 1.35" stroke="#1e1e1e" stroke-width="2" fill="none"></path></g><g transform="translate(569.0921171884793 371.5580518030831) rotate(0 62.45394140576042 0.766159261917494)"><path d="M102.44 9.68 C111.95 4.75, 117.39 3.76, 126.01 1.35 M102.44 9.68 C111.66 6.56, 118.89 3.51, 126.01 1.35" stroke="#1e1e1e" stroke-width="2" fill="none"></path></g><g transform="translate(569.0921171884793 371.5580518030831) rotate(0 62.45394140576042 0.766159261917494)"><path d="M102.6 -7.42 C112.12 -6.24, 117.5 -1.12, 126.01 1.35 M102.6 -7.42 C111.78 -4.29, 118.95 -1.09, 126.01 1.35" stroke="#1e1e1e" stroke-width="2" fill="none"></path></g></g><mask></mask><g stroke-linecap="round"><g transform="translate(866 370.71822329648387) rotate(0 59 0.35841149529596805)"><path d="M0.16 0.62 C19.79 1, 98.4 1.57, 118.2 1.42 M-1.22 -0.1 C18.24 0.02, 97.37 -0.44, 117.36 -0.33" stroke="#1e1e1e" stroke-width="2" fill="none"></path></g><g transform="translate(866 370.71822329648387) rotate(0 59 0.35841149529596805)"><path d="M93.87 8.24 C102.76 5.69, 110.69 4.1, 117.36 -0.33 M93.87 8.24 C99.9 6.42, 103.98 3.71, 117.36 -0.33" stroke="#1e1e1e" stroke-width="2" fill="none"></path></g><g transform="translate(866 370.71822329648387) rotate(0 59 0.35841149529596805)"><path d="M93.86 -8.86 C102.62 -5.73, 110.56 -1.65, 117.36 -0.33 M93.86 -8.86 C100.05 -6.94, 104.14 -5.9, 117.36 -0.33" stroke="#1e1e1e" stroke-width="2" fill="none"></path></g></g><mask></mask><g transform="translate(596 467) rotate(0 65.39427947998047 17.5)"><text x="0" y="0" font-family="Virgil, Segoe UI Emoji" font-size="28px" fill="#1971c2" text-anchor="start" style="white-space: pre;" direction="ltr" dominant-baseline="text-before-edge">Port 443</text></g><g stroke-linecap="round"><g transform="translate(696 372) rotate(0 -25 45.5)"><path d="M0.45 0.34 C-7.85 15.62, -41.5 75.86, -50.08 91.12" stroke="#1971c2" stroke-width="2.5" fill="none" stroke-dasharray="1.5 8"></path></g></g><mask></mask><g transform="translate(814 173) rotate(0 176.25634765625 53.36031368889539)"><text x="0" y="0" font-family="Virgil, Segoe UI Emoji" font-size="28.458833967410875px" fill="#1e1e1e" text-anchor="start" style="white-space: pre;" direction="ltr" dominant-baseline="text-before-edge">Redirect</text><text x="0" y="35.57354245926359" font-family="Virgil, Segoe UI Emoji" font-size="28.458833967410875px" fill="#1e1e1e" text-anchor="start" style="white-space: pre;" direction="ltr" dominant-baseline="text-before-edge">from sub.domain.name:443</text><text x="0" y="71.14708491852718" font-family="Virgil, Segoe UI Emoji" font-size="28.458833967410875px" fill="#1e1e1e" text-anchor="start" style="white-space: pre;" direction="ltr" dominant-baseline="text-before-edge">to lighttpd:80</text></g><g transform="translate(883 470) rotate(0 58.282249450683594 17.5)"><text x="0" y="0" font-family="Virgil, Segoe UI Emoji" font-size="28px" fill="#1971c2" text-anchor="start" style="white-space: pre;" direction="ltr" dominant-baseline="text-before-edge">Port 80</text></g><g stroke-linecap="round"><g transform="translate(915 369) rotate(0 0 -39.5)"><path d="M-1.11 0.11 C-1 -13.09, 0.42 -65.01, 0.65 -78.3" stroke="#1e1e1e" stroke-width="2.5" fill="none" stroke-dasharray="1.5 8"></path></g></g><mask></mask><g transform="translate(242 141) rotate(0 106.26042938232422 35)"><text x="0" y="0" font-family="Virgil, Segoe UI Emoji" font-size="28px" fill="#1e1e1e" text-anchor="start" style="white-space: pre;" direction="ltr" dominant-baseline="text-before-edge">Ask for</text><text x="0" y="35" font-family="Virgil, Segoe UI Emoji" font-size="28px" fill="#1e1e1e" text-anchor="start" style="white-space: pre;" direction="ltr" dominant-baseline="text-before-edge">sub.domain.name</text></g><g stroke-linecap="round"><g transform="translate(320 288) rotate(0 1 -35.5)"><path d="M0.58 0.05 C1 -11.89, 2.38 -58.72, 2.64 -70.73" stroke="#1e1e1e" stroke-width="2.5" fill="none" stroke-dasharray="1.5 8"></path></g></g><mask></mask><g stroke-linecap="round"><g transform="translate(982.8149151738735 372.27035803832115) rotate(0 -25 45.49999999999997)"><path d="M-0.6 0.48 C-8.8 15.57, -41.91 75.83, -50.16 91.1" stroke="#1971c2" stroke-width="2.5" fill="none" stroke-dasharray="1.5 8"></path></g></g><mask></mask><g transform="translate(460 74) rotate(0 168.09869384765625 35)"><text x="0" y="0" font-family="Virgil, Segoe UI Emoji" font-size="28px" fill="#1e1e1e" text-anchor="start" style="white-space: pre;" direction="ltr" dominant-baseline="text-before-edge">sub.domain.name point to</text><text x="0" y="35" font-family="Virgil, Segoe UI Emoji" font-size="28px" fill="#1e1e1e" text-anchor="start" style="white-space: pre;" direction="ltr" dominant-baseline="text-before-edge">Caddy host public IP</text></g><g stroke-linecap="round"><g transform="translate(624 150) rotate(0 -1 107.5)"><path d="M-0.66 0.01 C-0.61 36.02, -0.47 180.1, -0.87 215.95" stroke="#1e1e1e" stroke-width="2.5" fill="none" stroke-dasharray="1.5 8"></path></g></g><mask></mask><g stroke-linecap="round" transform="translate(10 10) rotate(0 627 302)"><path d="M32 0 C462.37 8.78, 888.95 7.93, 1222 0 M1222 0 C1247.04 1.69, 1252.22 10.95, 1254 32 M1254 32 C1250.11 170.14, 1249.26 306.54, 1254 572 M1254 572 C1251.06 589.54, 1246.75 607.07, 1222 604 M1222 604 C782.93 599.91, 344.17 600.17, 32 604 M32 604 C7.17 605.72, 0.35 594.83, 0 572 M0 572 C1.31 369.84, 2.51 170.84, 0 32 M0 32 C2.06 9.35, 8.16 1.12, 32 0" stroke="#1e1e1e" stroke-width="2.5" fill="none" stroke-dasharray="1.5 8"></path></g></svg>