<svg version="1.1" xmlns="http://www.w3.org/2000/svg" viewBox="0 0 1660 462.5" width="1660" height="462.5">
  <!-- svg-source:excalidraw -->
  
  <defs>
    <style class="style-fonts">
      @font-face {
        font-family: "Virgil";
        src: url("https://excalidraw.com/Virgil.woff2");
      }
      @font-face {
        font-family: "Cascadia";
        src: url("https://excalidraw.com/Cascadia.woff2");
      }
      @font-face {
        font-family: "Assistant";
        src: url("https://excalidraw.com/Assistant-Regular.woff2");
      }
    </style>
    
  </defs>
  <rect x="0" y="0" width="1660" height="462.5" fill="#ffffff"></rect><g stroke-linecap="round" transform="translate(10 50) rotate(0 70 40)"><path d="M20 0 C48.49 -1.19, 82.68 -0.9, 120 0 C132.51 -1, 139.2 4.11, 140 20 C142.94 33.83, 141.8 47.09, 140 60 C137.02 72.73, 133.23 76.64, 120 80 C93.29 81.75, 60.98 79.28, 20 80 C10.03 83.26, -0.2 70.38, 0 60 C-2.27 51.46, 0.42 41.51, 0 20 C-0.77 7.3, 5.27 2.37, 20 0" stroke="none" stroke-width="0" fill="#ffc9c9"></path><path d="M20 0 C42.46 0.35, 62.54 1.44, 120 0 M20 0 C53.43 1.13, 89.03 -0.26, 120 0 M120 0 C131.86 -1.16, 141.08 6.6, 140 20 M120 0 C132.14 0.89, 139.64 8.47, 140 20 M140 20 C141.66 33.75, 141.32 51.82, 140 60 M140 20 C140.97 29.43, 139.18 37.45, 140 60 M140 60 C138.8 75.24, 135.1 81.86, 120 80 M140 60 C140 72.21, 132.2 78.82, 120 80 M120 80 C95.58 80.39, 75.38 78.21, 20 80 M120 80 C79.25 78.92, 40.27 79.9, 20 80 M20 80 C8.44 79.9, -0.17 74.32, 0 60 M20 80 C4.48 81.03, -0.19 71.92, 0 60 M0 60 C-1.6 44.95, 1.9 27.25, 0 20 M0 60 C0.74 49.29, -0.12 36.91, 0 20 M0 20 C-0.99 8.39, 6.85 1.29, 20 0 M0 20 C0.84 6.82, 8.36 -0.86, 20 0" stroke="#1e1e1e" stroke-width="2" fill="none"></path></g><g transform="translate(42.129844665527344 72.5) rotate(0 37.870155334472656 17.5)"><text x="37.870155334472656" y="0" font-family="Virgil, Segoe UI Emoji" font-size="28px" fill="#1e1e1e" text-anchor="middle" style="white-space: pre;" direction="ltr" dominant-baseline="text-before-edge">Client</text></g><g stroke-linecap="round" transform="translate(10 170) rotate(0 70 40)"><path d="M20 0 C51.21 2.36, 76.24 -0.54, 120 0 C136.61 -3.14, 137.79 6.52, 140 20 C137.17 36.46, 142.81 45.32, 140 60 C143.12 70.57, 132.66 79.57, 120 80 C96.2 82.04, 73.18 76.61, 20 80 C4.54 78.52, -0.45 72.19, 0 60 C2.78 47.66, -0.22 36.82, 0 20 C-2.22 5.37, 9.48 -1.72, 20 0" stroke="none" stroke-width="0" fill="#ffc9c9"></path><path d="M20 0 C46.3 2.23, 69.37 2.66, 120 0 M20 0 C43.21 0.99, 68 1.65, 120 0 M120 0 C133.23 -0.17, 140.99 4.76, 140 20 M120 0 C134.36 -0.19, 138.58 8.84, 140 20 M140 20 C140.83 30.21, 138.91 36.99, 140 60 M140 20 C140.88 30.4, 139.92 40.81, 140 60 M140 60 C141.72 73.51, 134.62 80.73, 120 80 M140 60 C140.15 75.02, 132.47 80.02, 120 80 M120 80 C84.83 80.96, 50.2 79.1, 20 80 M120 80 C92.8 79.54, 64.75 80.06, 20 80 M20 80 C7.65 80.9, 1.65 71.68, 0 60 M20 80 C6.28 79.94, -2.15 73.15, 0 60 M0 60 C2.37 51.22, 0.99 44.99, 0 20 M0 60 C-0.52 45.16, -0.14 28.29, 0 20 M0 20 C0.71 7.21, 7.3 -0.43, 20 0 M0 20 C0.4 5.77, 8.18 2.21, 20 0" stroke="#1e1e1e" stroke-width="2" fill="none"></path></g><g transform="translate(42.129844665527344 192.5) rotate(0 37.870155334472656 17.5)"><text x="37.870155334472656" y="0" font-family="Virgil, Segoe UI Emoji" font-size="28px" fill="#1e1e1e" text-anchor="middle" style="white-space: pre;" direction="ltr" dominant-baseline="text-before-edge">Client</text></g><g stroke-linecap="round" transform="translate(10 290) rotate(0 70 40)"><path d="M20 0 C50.91 0.94, 82.35 3.59, 120 0 C134.98 1.45, 141.83 6.65, 140 20 C142.08 38.2, 138.7 50.51, 140 60 C141.91 74.82, 131.32 81.13, 120 80 C86.45 82.57, 50.67 81.79, 20 80 C4.8 80.55, 1.73 75.21, 0 60 C2.97 46.42, -1.9 31.73, 0 20 C0.84 7.49, 5.59 0.63, 20 0" stroke="none" stroke-width="0" fill="#ffc9c9"></path><path d="M20 0 C57.95 2.38, 97.76 -0.13, 120 0 M20 0 C53.33 -0.14, 86.71 0.34, 120 0 M120 0 C135.26 -0.21, 139.16 7.76, 140 20 M120 0 C134.78 2.14, 138.93 6.95, 140 20 M140 20 C139.57 36.66, 141.22 50.5, 140 60 M140 20 C139.51 29.09, 139.5 36.26, 140 60 M140 60 C139.76 71.87, 134.46 79.9, 120 80 M140 60 C139.3 74.69, 132.43 77.89, 120 80 M120 80 C95.26 80.5, 70.71 78.75, 20 80 M120 80 C84.27 79.22, 46.35 80.61, 20 80 M20 80 C5.71 79.26, -1.08 74.97, 0 60 M20 80 C4.37 79.15, -1.75 75.37, 0 60 M0 60 C0.72 50.15, -0.04 37.94, 0 20 M0 60 C-0.09 50.94, 0.21 42.31, 0 20 M0 20 C0.91 6.1, 7.42 1.06, 20 0 M0 20 C1.88 5.4, 5.52 0.77, 20 0" stroke="#1e1e1e" stroke-width="2" fill="none"></path></g><g transform="translate(42.129844665527344 312.5) rotate(0 37.870155334472656 17.5)"><text x="37.870155334472656" y="0" font-family="Virgil, Segoe UI Emoji" font-size="28px" fill="#1e1e1e" text-anchor="middle" style="white-space: pre;" direction="ltr" dominant-baseline="text-before-edge">Client</text></g><g stroke-linecap="round" transform="translate(250 130) rotate(0 100 80)"><path d="M71.38 2.91 C82.42 -1.11, 96.49 -0.01, 108.88 1.06 C121.27 2.13, 134.41 4.64, 145.74 9.31 C157.07 13.98, 168.69 21.19, 176.85 29.07 C185.02 36.96, 191.02 47.02, 194.73 56.63 C198.43 66.24, 200.17 76.78, 199.06 86.74 C197.95 96.7, 194 107.41, 188.05 116.4 C182.11 125.38, 173.26 133.97, 163.38 140.65 C153.51 147.33, 140.95 153.18, 128.8 156.47 C116.64 159.75, 103.09 161.46, 90.45 160.37 C77.81 159.29, 64.13 154.84, 52.95 149.95 C41.76 145.06, 31.31 138.59, 23.35 131.04 C15.39 123.48, 8.97 114.21, 5.17 104.62 C1.37 95.04, -0.37 83.83, 0.55 73.55 C1.48 63.28, 4.68 52.1, 10.7 42.98 C16.72 33.85, 24.72 25.66, 36.68 18.79 C48.65 11.91, 72.91 4.7, 82.5 1.72 C92.09 -1.27, 94.09 -0.23, 94.24 0.87 M75.42 2.1 C86.36 -1.83, 99.84 -0.7, 112.23 0.62 C124.61 1.93, 138.79 4.92, 149.75 9.99 C160.7 15.06, 170.31 22.98, 177.93 31.04 C185.55 39.1, 191.77 48.35, 195.45 58.36 C199.13 68.36, 201.35 80.82, 200.03 91.07 C198.72 101.32, 194.26 111.04, 187.56 119.83 C180.86 128.63, 170.1 137.51, 159.83 143.85 C149.56 150.18, 138.34 155.16, 125.92 157.85 C113.5 160.54, 98 161.23, 85.3 159.99 C72.6 158.76, 60.6 155.48, 49.71 150.44 C38.81 145.4, 27.44 138.17, 19.92 129.77 C12.4 121.36, 7.87 110.22, 4.6 100 C1.33 89.79, -1.22 78.57, 0.3 68.49 C1.82 58.42, 7.21 48.46, 13.73 39.54 C20.25 30.63, 29.43 20.95, 39.43 15.02 C49.43 9.09, 67.69 5.98, 73.71 3.96 C79.73 1.95, 75.19 1.61, 75.54 2.93" stroke="none" stroke-width="0" fill="#a5d8ff"></path><path d="M92 -0.21 C103.8 -2.05, 118.07 0.96, 130.2 4.18 C142.33 7.39, 155.02 12.65, 164.78 19.06 C174.54 25.47, 182.82 33.65, 188.77 42.64 C194.71 51.62, 199.44 62.8, 200.46 72.96 C201.47 83.13, 198.8 93.86, 194.87 103.64 C190.93 113.42, 185.01 123.72, 176.85 131.64 C168.69 139.55, 157.28 146.52, 145.9 151.13 C134.51 155.73, 121.1 158.49, 108.54 159.25 C95.98 160.02, 82.82 158.57, 70.55 155.71 C58.29 152.84, 44.71 148.55, 34.94 142.06 C25.18 135.58, 17.59 126.12, 11.94 116.8 C6.29 107.47, 2.14 96.16, 1.05 86.1 C-0.03 76.04, 1.53 65.95, 5.42 56.42 C9.3 46.88, 16.19 36.66, 24.37 28.88 C32.55 21.09, 42.45 14.45, 54.47 9.71 C66.49 4.98, 88.38 1.76, 96.46 0.46 C104.55 -0.83, 102.82 0.67, 102.98 1.95 M130.95 4.78 C142.93 6.77, 154.15 12.76, 163.94 19.26 C173.73 25.77, 184 34.69, 189.71 43.78 C195.43 52.87, 197.16 63.74, 198.24 73.81 C199.33 83.89, 199.93 94.65, 196.22 104.24 C192.52 113.83, 184.18 123.42, 176.02 131.35 C167.85 139.28, 158.57 147.26, 147.23 151.84 C135.89 156.41, 120.88 158.19, 107.98 158.79 C95.08 159.39, 82.05 158.3, 69.84 155.44 C57.62 152.58, 44.58 148.36, 34.69 141.65 C24.8 134.94, 16.25 124.18, 10.51 115.17 C4.77 106.16, 1 97.61, 0.24 87.61 C-0.53 77.6, 1.94 64.88, 5.93 55.14 C9.92 45.41, 16.18 36.72, 24.18 29.18 C32.18 21.63, 42.53 14.93, 53.93 9.89 C65.33 4.86, 80 0.05, 92.56 -1.02 C105.13 -2.1, 122.9 2.41, 129.32 3.44 C135.75 4.47, 131.45 4.01, 131.13 5.15" stroke="#1e1e1e" stroke-width="2" fill="none"></path></g><g transform="translate(292.1377487182617 192.4314575050762) rotate(0 57.86225128173828 17.5)"><text x="57.86225128173828" y="0" font-family="Virgil, Segoe UI Emoji" font-size="28px" fill="#1e1e1e" text-anchor="middle" style="white-space: pre;" direction="ltr" dominant-baseline="text-before-edge">Internet</text></g><g stroke-linecap="round" transform="translate(550 170) rotate(0 80 40)"><path d="M20 0 C63.32 0.63, 114.31 -3.21, 140 0 C151.28 1.55, 161.34 8.66, 160 20 C160.72 31.01, 163.1 50.61, 160 60 C163.56 71.89, 153.51 79.31, 140 80 C95.89 76.62, 44.43 79.25, 20 80 C4.45 80.12, -1.41 71.88, 0 60 C2.67 44.64, 3.02 31.84, 0 20 C-0.69 7.93, 10.03 -2.45, 20 0" stroke="none" stroke-width="0" fill="#ffec99"></path><path d="M20 0 C51.29 -1.88, 78.2 -1.2, 140 0 M20 0 C52.65 0.41, 85.07 1.8, 140 0 M140 0 C154.01 1.38, 159.64 5.43, 160 20 M140 0 C153.8 0.29, 160.84 4.38, 160 20 M160 20 C159.09 35.39, 161.6 46.91, 160 60 M160 20 C159.52 30.58, 158.79 40.54, 160 60 M160 60 C161.69 74.35, 151.59 78.68, 140 80 M160 60 C162.26 74.76, 152.3 79.69, 140 80 M140 80 C94 80.47, 46.36 80.65, 20 80 M140 80 C106.2 81.13, 72.05 81.22, 20 80 M20 80 C7.7 81.8, -0.99 74.48, 0 60 M20 80 C8.95 78.63, 0.58 74.4, 0 60 M0 60 C-1.14 52.97, 0.96 42.41, 0 20 M0 60 C-0.09 45.93, 0.4 32.85, 0 20 M0 20 C-0.68 5.05, 5.02 1.35, 20 0 M0 20 C2.29 6, 7.6 -2.21, 20 0" stroke="#1e1e1e" stroke-width="2" fill="none"></path></g><g transform="translate(583.2117919921875 192.5) rotate(0 46.7882080078125 17.5)"><text x="46.7882080078125" y="0" font-family="Virgil, Segoe UI Emoji" font-size="28px" fill="#1e1e1e" text-anchor="middle" style="white-space: pre;" direction="ltr" dominant-baseline="text-before-edge">Router</text></g><g stroke-linecap="round" transform="translate(1150 10) rotate(0 90 40)"><path d="M20 0 C61.24 -0.67, 98.11 -2.7, 160 0 C174.98 1.38, 183.09 9.29, 180 20 C177.05 31.74, 179.08 46.8, 180 60 C180.08 76.19, 173.79 82.72, 160 80 C103.66 80.45, 55.61 79.85, 20 80 C8.36 82.39, -1.85 74.21, 0 60 C1.48 53.61, 1.99 44.97, 0 20 C1.19 8.54, 8.81 -1.38, 20 0" stroke="none" stroke-width="0" fill="#b2f2bb"></path><path d="M20 0 C72.14 0.86, 123.55 0.52, 160 0 M20 0 C56.78 -1.21, 93.41 0.27, 160 0 M160 0 C175.33 -0.58, 180.81 4.75, 180 20 M160 0 C175.28 0.72, 181.84 4.84, 180 20 M180 20 C179.07 35.49, 180.96 50.37, 180 60 M180 20 C180.35 32.9, 181.01 48.18, 180 60 M180 60 C181.98 72.53, 173.43 79.62, 160 80 M180 60 C181.95 71.93, 171.04 81.31, 160 80 M160 80 C121.51 80.61, 84.69 79.74, 20 80 M160 80 C106.62 80.34, 52.77 81.07, 20 80 M20 80 C6.28 80.7, 1.87 71.97, 0 60 M20 80 C7.56 79.48, 1.82 74.73, 0 60 M0 60 C-0.9 49.56, -0.8 35.45, 0 20 M0 60 C1.1 47.49, -0.55 35.66, 0 20 M0 20 C1.52 8.34, 7 1.68, 20 0 M0 20 C2.27 7.79, 8.36 -1.16, 20 0" stroke="#1e1e1e" stroke-width="2" fill="none"></path></g><g transform="translate(1186.0157623291016 32.5) rotate(0 53.98423767089844 17.5)"><text x="53.98423767089844" y="0" font-family="Virgil, Segoe UI Emoji" font-size="28px" fill="#1e1e1e" text-anchor="middle" style="white-space: pre;" direction="ltr" dominant-baseline="text-before-edge">Server 1</text></g><g stroke-linecap="round" transform="translate(1150 170) rotate(0 90 40)"><path d="M20 0 C51.19 0.02, 81.28 -2.71, 160 0 C174.97 2.94, 178.59 5.94, 180 20 C177.2 39.38, 178.39 49.99, 180 60 C177.53 74.44, 170.74 80.31, 160 80 C123.56 80.96, 92.34 81.32, 20 80 C6.62 79.64, 0.97 73.56, 0 60 C2.46 46.45, 2.31 27.26, 0 20 C-0.57 5.82, 6.67 -1.84, 20 0" stroke="none" stroke-width="0" fill="#b2f2bb"></path><path d="M20 0 C74.83 -1.6, 131.35 -1.27, 160 0 M20 0 C73.75 -0.36, 129.56 0.04, 160 0 M160 0 C174.79 0.05, 179.18 5.13, 180 20 M160 0 C171.64 -0.24, 179.6 8.31, 180 20 M180 20 C181.83 33.74, 180.08 44.36, 180 60 M180 20 C179.92 29.4, 180.69 37.34, 180 60 M180 60 C180.49 71.79, 173.63 81.03, 160 80 M180 60 C181.01 74.94, 174.67 81.78, 160 80 M160 80 C112.62 81.49, 68.3 79.6, 20 80 M160 80 C107.15 80.54, 52 80.89, 20 80 M20 80 C8.41 79.41, -0.94 71.91, 0 60 M20 80 C8.44 78.02, -1.53 74.89, 0 60 M0 60 C-1.39 48.82, -0.78 38.31, 0 20 M0 60 C0.08 47.44, -1.02 34.57, 0 20 M0 20 C-1.3 8.21, 7.69 -1.98, 20 0 M0 20 C-0.66 7.11, 8.57 0.67, 20 0" stroke="#1e1e1e" stroke-width="2" fill="none"></path></g><g transform="translate(1179.8417358398438 192.5) rotate(0 60.15826416015625 17.5)"><text x="60.15826416015625" y="0" font-family="Virgil, Segoe UI Emoji" font-size="28px" fill="#1e1e1e" text-anchor="middle" style="white-space: pre;" direction="ltr" dominant-baseline="text-before-edge">Server 2</text></g><g stroke-linecap="round" transform="translate(1150 330) rotate(0 90 40)"><path d="M20 0 C49.79 2.95, 86.58 1.09, 160 0 C172.99 -1.27, 179.88 8.48, 180 20 C178.6 30.09, 178.55 39.17, 180 60 C181.31 72.03, 170.83 82.76, 160 80 C122.66 82.01, 78.5 82.32, 20 80 C9.85 77.07, -1.16 76.57, 0 60 C0.67 43.88, -3.2 30.75, 0 20 C-0.87 3.74, 8.56 -1.61, 20 0" stroke="none" stroke-width="0" fill="#b2f2bb"></path><path d="M20 0 C70.97 -1.87, 123.17 -1.26, 160 0 M20 0 C69.13 -0.06, 119.91 -1.15, 160 0 M160 0 C173.13 -1.3, 181.54 7.69, 180 20 M160 0 C171.06 -0.66, 180.44 8.57, 180 20 M180 20 C181.3 32.98, 180.83 45.35, 180 60 M180 20 C179.79 31.03, 181.16 42.2, 180 60 M180 60 C181.73 71.89, 175.25 79.21, 160 80 M180 60 C178.81 71.75, 174.04 78.34, 160 80 M160 80 C117.12 78.63, 73.87 81.03, 20 80 M160 80 C114.77 79.92, 69.74 79.97, 20 80 M20 80 C8.65 81.41, 0.78 74.66, 0 60 M20 80 C4.87 79.63, -0.54 73.34, 0 60 M0 60 C-1.61 51.61, -1.76 38.38, 0 20 M0 60 C0.78 49.1, 0.34 39.24, 0 20 M0 20 C0.42 6.26, 4.97 1.03, 20 0 M0 20 C-0.41 5.33, 4.52 -2.21, 20 0" stroke="#1e1e1e" stroke-width="2" fill="none"></path></g><g transform="translate(1180.275733947754 352.5) rotate(0 59.724266052246094 17.5)"><text x="59.724266052246094" y="0" font-family="Virgil, Segoe UI Emoji" font-size="28px" fill="#1e1e1e" text-anchor="middle" style="white-space: pre;" direction="ltr" dominant-baseline="text-before-edge">Server 3</text></g><g stroke-linecap="round"><g transform="translate(150 90) rotate(0 60 40)"><path d="M-0.19 -0.56 C19.98 12.7, 100.49 66.63, 120.59 79.97 M-1.74 1.76 C18.35 15.18, 99.68 68.36, 119.95 81.48" stroke="#1e1e1e" stroke-width="2" fill="none"></path></g><g transform="translate(150 90) rotate(0 60 40)"><path d="M95.6 75.83 C101.16 78.35, 108.52 79.59, 119.95 81.48 M95.6 75.83 C101.98 76.8, 107.77 77.76, 119.95 81.48" stroke="#1e1e1e" stroke-width="2" fill="none"></path></g><g transform="translate(150 90) rotate(0 60 40)"><path d="M104.93 61.5 C108.06 67.82, 112.94 72.87, 119.95 81.48 M104.93 61.5 C108.81 66.15, 112.21 70.77, 119.95 81.48" stroke="#1e1e1e" stroke-width="2" fill="none"></path></g></g><mask></mask><g stroke-linecap="round"><g transform="translate(150 210) rotate(0 50 0)"><path d="M0.67 0.36 C17.44 0.17, 84.16 -0.62, 100.85 -0.8 M-0.44 -0.5 C16.24 -0.58, 83.53 0.2, 100.34 0.32" stroke="#1e1e1e" stroke-width="2" fill="none"></path></g><g transform="translate(150 210) rotate(0 50 0)"><path d="M76.77 8.65 C84.77 7.31, 90.26 4.57, 100.34 0.32 M76.77 8.65 C81.49 6.33, 87.94 3.83, 100.34 0.32" stroke="#1e1e1e" stroke-width="2" fill="none"></path></g><g transform="translate(150 210) rotate(0 50 0)"><path d="M76.93 -8.45 C84.93 -4.41, 90.37 -1.76, 100.34 0.32 M76.93 -8.45 C81.54 -6.65, 87.95 -5.04, 100.34 0.32" stroke="#1e1e1e" stroke-width="2" fill="none"></path></g></g><mask></mask><g stroke-linecap="round"><g transform="translate(150 330) rotate(0 60 -40)"><path d="M0.56 0.62 C20.81 -12.96, 101.11 -67.21, 121.01 -80.56 M-0.6 -0.1 C19.62 -13.61, 100.63 -65.74, 120.59 -79.31" stroke="#1e1e1e" stroke-width="2" fill="none"></path></g><g transform="translate(150 330) rotate(0 60 -40)"><path d="M105.68 -59.24 C110.43 -62.84, 112.34 -69.83, 120.59 -79.31 M105.68 -59.24 C110.64 -66.94, 116.3 -72.76, 120.59 -79.31" stroke="#1e1e1e" stroke-width="2" fill="none"></path></g><g transform="translate(150 330) rotate(0 60 -40)"><path d="M96.27 -73.52 C103.58 -73.46, 107.93 -76.73, 120.59 -79.31 M96.27 -73.52 C104.56 -76.23, 113.47 -77.12, 120.59 -79.31" stroke="#1e1e1e" stroke-width="2" fill="none"></path></g></g><mask></mask><g stroke-linecap="round"><g transform="translate(450 210) rotate(0 50 0)"><path d="M-0.82 0.78 C15.73 0.9, 83.45 0.87, 100.16 0.79 M0.95 0.15 C17.29 -0.08, 83.07 -1.18, 99.29 -0.92" stroke="#1e1e1e" stroke-width="2" fill="none"></path></g><g transform="translate(450 210) rotate(0 50 0)"><path d="M75.82 7.7 C85.8 4.94, 94.48 0.49, 99.29 -0.92 M75.82 7.7 C84.36 5.75, 91.55 1.1, 99.29 -0.92" stroke="#1e1e1e" stroke-width="2" fill="none"></path></g><g transform="translate(450 210) rotate(0 50 0)"><path d="M75.78 -9.4 C85.78 -5.84, 94.48 -3.97, 99.29 -0.92 M75.78 -9.4 C84.17 -5.81, 91.37 -4.91, 99.29 -0.92" stroke="#1e1e1e" stroke-width="2" fill="none"></path></g></g><mask></mask><g stroke-linecap="round" transform="translate(830 170) rotate(0 90 40)"><path d="M20 0 C62.03 -2.16, 111.06 -0.74, 160 0 C171.22 -0.76, 177.85 4.17, 180 20 C179.38 34.31, 181.82 43.75, 180 60 C182.24 74.31, 171.53 77.24, 160 80 C115.19 83.31, 66.91 80.26, 20 80 C6.2 82.36, 0.14 70.9, 0 60 C0.88 41.22, -2.1 26.33, 0 20 C1.25 9.7, 4.84 -1.05, 20 0" stroke="none" stroke-width="0" fill="#eaddd7"></path><path d="M20 0 C76.3 -1.43, 129.86 -0.43, 160 0 M20 0 C72.65 -1.07, 124.9 -0.36, 160 0 M160 0 C172.53 1.74, 180.25 6.68, 180 20 M160 0 C175.33 -1.65, 179.81 6.07, 180 20 M180 20 C181.72 31.35, 181.19 37.97, 180 60 M180 20 C180.42 30.42, 180.02 38.87, 180 60 M180 60 C180.51 72.49, 172.6 78.97, 160 80 M180 60 C178.38 74.31, 172.19 81.33, 160 80 M160 80 C104.69 81.21, 50.98 81.05, 20 80 M160 80 C103.35 80.98, 48.33 79.83, 20 80 M20 80 C7.89 79.48, -1.8 75.12, 0 60 M20 80 C7.81 79.67, -1.47 72.91, 0 60 M0 60 C0.68 53.46, 0.82 42.88, 0 20 M0 60 C0.23 45.94, 0.15 32.24, 0 20 M0 20 C1.68 5.36, 6.09 0.05, 20 0 M0 20 C0.12 6.18, 8.6 1.63, 20 0" stroke="#e03131" stroke-width="4" fill="none"></path></g><g transform="translate(859.5897369384766 175) rotate(0 60.41026306152344 35)"><text x="60.41026306152344" y="0" font-family="Virgil, Segoe UI Emoji" font-size="28px" fill="#e03131" text-anchor="middle" style="white-space: pre;" direction="ltr" dominant-baseline="text-before-edge">Reverse </text><text x="60.41026306152344" y="35" font-family="Virgil, Segoe UI Emoji" font-size="28px" fill="#e03131" text-anchor="middle" style="white-space: pre;" direction="ltr" dominant-baseline="text-before-edge">Proxy</text></g><g stroke-linecap="round"><g transform="translate(711 210) rotate(0 59 0)"><path d="M0.9 -0.68 C20.91 -0.65, 99.45 -0.53, 118.96 -0.45 M-0.08 1.57 C19.94 1.82, 98.97 0.95, 118.51 0.85" stroke="#1e1e1e" stroke-width="2" fill="none"></path></g><g transform="translate(711 210) rotate(0 59 0)"><path d="M95.09 9.59 C98.94 9.17, 104.28 5.67, 118.51 0.85 M95.09 9.59 C102.62 7.2, 109.29 4.8, 118.51 0.85" stroke="#1e1e1e" stroke-width="2" fill="none"></path></g><g transform="translate(711 210) rotate(0 59 0)"><path d="M94.95 -7.51 C98.75 -4.32, 104.11 -4.21, 118.51 0.85 M94.95 -7.51 C102.39 -5.09, 109.11 -2.67, 118.51 0.85" stroke="#1e1e1e" stroke-width="2" fill="none"></path></g></g><mask></mask><g stroke-linecap="round"><g transform="translate(1011 197.29612823090633) rotate(0 69 -71.82915030803575)"><path d="M-0.82 -1.18 C22.21 -25.21, 115.32 -119.54, 138.59 -143.22 M0.95 0.81 C23.84 -23.67, 115.03 -120.75, 137.95 -145.11" stroke="#1e1e1e" stroke-width="2" fill="none"></path></g><g transform="translate(1011 197.29612823090633) rotate(0 69 -71.82915030803575)"><path d="M128.09 -122.14 C129.23 -128.76, 135.22 -136.07, 137.95 -145.11 M128.09 -122.14 C131.22 -130.3, 134.75 -137.89, 137.95 -145.11" stroke="#1e1e1e" stroke-width="2" fill="none"></path></g><g transform="translate(1011 197.29612823090633) rotate(0 69 -71.82915030803575)"><path d="M115.63 -133.85 C121.02 -136.48, 131.16 -139.88, 137.95 -145.11 M115.63 -133.85 C122.85 -138.06, 130.56 -141.73, 137.95 -145.11" stroke="#1e1e1e" stroke-width="2" fill="none"></path></g></g><mask></mask><g stroke-linecap="round"><g transform="translate(1011 210) rotate(0 69 0)"><path d="M0.79 -0.79 C23.42 -1.02, 113.85 -0.59, 136.88 -0.56 M-0.25 1.4 C22.63 1.26, 115.84 0.85, 139.01 0.69" stroke="#1e1e1e" stroke-width="2" fill="none"></path></g><g transform="translate(1011 210) rotate(0 69 0)"><path d="M115.56 9.37 C123.4 3.94, 133.02 4.01, 139.01 0.69 M115.56 9.37 C121.19 7.32, 127.19 4.09, 139.01 0.69" stroke="#1e1e1e" stroke-width="2" fill="none"></path></g><g transform="translate(1011 210) rotate(0 69 0)"><path d="M115.47 -7.73 C123.46 -6.44, 133.11 0.36, 139.01 0.69 M115.47 -7.73 C121.28 -5.5, 127.3 -4.44, 139.01 0.69" stroke="#1e1e1e" stroke-width="2" fill="none"></path></g></g><mask></mask><g stroke-linecap="round"><g transform="translate(1011 222.30188679120778) rotate(0 69 67.69811320803811)"><path d="M0.74 0.39 C23.78 23.08, 115.92 113.61, 138.74 136.19 M-0.32 -0.45 C22.57 21.89, 115.34 112.11, 138.18 134.48" stroke="#1e1e1e" stroke-width="2" fill="none"></path></g><g transform="translate(1011 222.30188679120778) rotate(0 69 67.69811320803811)"><path d="M115.39 124.2 C123.86 128.82, 132.36 130.56, 138.18 134.48 M115.39 124.2 C123.88 128.49, 131.77 131.3, 138.18 134.48" stroke="#1e1e1e" stroke-width="2" fill="none"></path></g><g transform="translate(1011 222.30188679120778) rotate(0 69 67.69811320803811)"><path d="M127.33 111.96 C131.71 120.85, 136.11 126.79, 138.18 134.48 M127.33 111.96 C131.81 120.37, 135.64 127.33, 138.18 134.48" stroke="#1e1e1e" stroke-width="2" fill="none"></path></g></g><mask></mask><g transform="translate(510 270) rotate(0 125.3598861694336 12.5)"><text x="0" y="0" font-family="Virgil, Segoe UI Emoji" font-size="20px" fill="#e03131" text-anchor="start" style="white-space: pre;" direction="ltr" dominant-baseline="text-before-edge">Public IP: 184.112.164.226</text></g><g transform="translate(830 270) rotate(0 97.38990783691406 12.5)"><text x="0" y="0" font-family="Virgil, Segoe UI Emoji" font-size="20px" fill="#1971c2" text-anchor="start" style="white-space: pre;" direction="ltr" dominant-baseline="text-before-edge">local IP: 192.168.1.3</text></g><g transform="translate(1150 107.5) rotate(0 96.97991180419922 12.5)"><text x="0" y="0" font-family="Virgil, Segoe UI Emoji" font-size="20px" fill="#1971c2" text-anchor="start" style="white-space: pre;" direction="ltr" dominant-baseline="text-before-edge">local IP: 192.168.1.4</text></g><g transform="translate(1150 267.5) rotate(0 96.7599105834961 12.5)"><text x="0" y="0" font-family="Virgil, Segoe UI Emoji" font-size="20px" fill="#1971c2" text-anchor="start" style="white-space: pre;" direction="ltr" dominant-baseline="text-before-edge">local IP: 192.168.1.5</text></g><g transform="translate(1150 427.5) rotate(0 96.97991180419922 12.5)"><text x="0" y="0" font-family="Virgil, Segoe UI Emoji" font-size="20px" fill="#1971c2" text-anchor="start" style="white-space: pre;" direction="ltr" dominant-baseline="text-before-edge">local IP: 192.168.1.6</text></g><g stroke-linecap="round" transform="translate(1490 90) rotate(0 80 40)"><path d="M20 0 C54.4 -0.82, 85.94 -1.19, 140 0 C156.34 -1.82, 162.23 3.74, 160 20 C160.64 31.98, 157.42 48.37, 160 60 C157.38 73.62, 155.3 82.53, 140 80 C91.87 78.44, 45.16 78.54, 20 80 C5.08 79.21, 3.56 73.19, 0 60 C-0.35 41.77, 0.87 28.52, 0 20 C-2.94 3.4, 4.09 2.1, 20 0" stroke="none" stroke-width="0" fill="#ffd8a8"></path><path d="M20 0 C49.02 1.13, 77.98 1.03, 140 0 M20 0 C44 -0.39, 67.61 -0.09, 140 0 M140 0 C154.86 -0.74, 158.43 5.86, 160 20 M140 0 C153.41 1.45, 161.36 8.71, 160 20 M160 20 C160.77 28.04, 159.72 41.03, 160 60 M160 20 C160.09 29.37, 159.13 39.35, 160 60 M160 60 C160.42 74.46, 154.58 79.51, 140 80 M160 60 C161.7 73.19, 155.23 80.13, 140 80 M140 80 C105.81 82.01, 70.84 80.87, 20 80 M140 80 C100.61 79.02, 60.04 78.44, 20 80 M20 80 C5.53 80.93, -1.14 73.18, 0 60 M20 80 C5.75 79.37, 2.24 72.75, 0 60 M0 60 C0.5 43.96, 0.7 27.56, 0 20 M0 60 C-0.02 47.39, 1.17 35.85, 0 20 M0 20 C-0.39 7.2, 7.8 -0.65, 20 0 M0 20 C-0.65 5.72, 8.8 2.16, 20 0" stroke="#1e1e1e" stroke-width="2" fill="none"></path></g><g transform="translate(1511.941749572754 112.5) rotate(0 58.058250427246094 17.5)"><text x="58.058250427246094" y="0" font-family="Virgil, Segoe UI Emoji" font-size="28px" fill="#1e1e1e" text-anchor="middle" style="white-space: pre;" direction="ltr" dominant-baseline="text-before-edge">Service 1</text></g><g stroke-linecap="round" transform="translate(1490 250) rotate(0 80 40)"><path d="M20 0 C49.29 0.92, 69.79 -2.4, 140 0 C152.18 -2.12, 160.2 5.39, 160 20 C157.6 25.6, 157.38 40.41, 160 60 C162 75.63, 152.62 77.45, 140 80 C96.9 81.03, 50.26 78.63, 20 80 C9.76 76.89, 1.39 75.81, 0 60 C2.52 47.84, -1.15 35.78, 0 20 C2.07 6.56, 5.98 -2.76, 20 0" stroke="none" stroke-width="0" fill="#ffd8a8"></path><path d="M20 0 C61.13 -0.97, 99.44 -1.14, 140 0 M20 0 C66.8 -0.65, 114.17 -0.57, 140 0 M140 0 C151.41 -1.6, 161.67 5.66, 160 20 M140 0 C154.76 -1.87, 160.83 7.96, 160 20 M160 20 C158.37 32.04, 158.57 42.58, 160 60 M160 20 C160.07 34.66, 159.66 47.65, 160 60 M160 60 C158.29 71.95, 152.45 79.56, 140 80 M160 60 C162.28 73.24, 155.24 80.04, 140 80 M140 80 C97.04 78.55, 51.48 77.21, 20 80 M140 80 C112.01 80.99, 84.87 81.17, 20 80 M20 80 C5.64 79.77, 0.2 72.98, 0 60 M20 80 C4.51 79.78, -1.57 73.47, 0 60 M0 60 C0.65 46.54, 1.56 33.79, 0 20 M0 60 C-1.3 49.46, 0.5 37.68, 0 20 M0 20 C-1.98 5.74, 6 1.53, 20 0 M0 20 C-0.72 5.11, 5.97 1.82, 20 0" stroke="#1e1e1e" stroke-width="2" fill="none"></path></g><g transform="translate(1505.767723083496 272.5) rotate(0 64.2322769165039 17.5)"><text x="64.2322769165039" y="0" font-family="Virgil, Segoe UI Emoji" font-size="28px" fill="#1e1e1e" text-anchor="middle" style="white-space: pre;" direction="ltr" dominant-baseline="text-before-edge">Service 2</text></g><g stroke-linecap="round"><g transform="translate(1330 210) rotate(0 80 -40)"><path d="M-0.16 -0.22 C26.31 -13.56, 132.61 -65.84, 159.27 -79.2 M-1.7 -1.38 C25.12 -15.13, 134.83 -67.92, 161.6 -80.91" stroke="#1e1e1e" stroke-width="2" fill="none"></path></g><g transform="translate(1330 210) rotate(0 80 -40)"><path d="M144.17 -62.99 C149.58 -70.25, 157.17 -75.48, 161.6 -80.91 M144.17 -62.99 C148.81 -68.01, 152.68 -73.22, 161.6 -80.91" stroke="#1e1e1e" stroke-width="2" fill="none"></path></g><g transform="translate(1330 210) rotate(0 80 -40)"><path d="M136.73 -78.38 C144.76 -80.42, 154.87 -80.44, 161.6 -80.91 M136.73 -78.38 C143.28 -79.38, 149.11 -80.52, 161.6 -80.91" stroke="#1e1e1e" stroke-width="2" fill="none"></path></g></g><mask></mask><g stroke-linecap="round"><g transform="translate(1330 210) rotate(0 80 40)"><path d="M0.25 -0.58 C27.07 12.77, 134.55 65.89, 161.04 79.18 M-1.08 1.74 C25.67 15.29, 133.52 67.24, 160.64 80.29" stroke="#1e1e1e" stroke-width="2" fill="none"></path></g><g transform="translate(1330 210) rotate(0 80 40)"><path d="M135.76 77.79 C142.42 80.24, 149.66 77.9, 160.64 80.29 M135.76 77.79 C141.8 78.69, 147.74 79.98, 160.64 80.29" stroke="#1e1e1e" stroke-width="2" fill="none"></path></g><g transform="translate(1330 210) rotate(0 80 40)"><path d="M143.19 62.39 C147.45 69.58, 152.41 71.97, 160.64 80.29 M143.19 62.39 C147.41 66.79, 151.65 71.62, 160.64 80.29" stroke="#1e1e1e" stroke-width="2" fill="none"></path></g></g><mask></mask><g transform="translate(1490 187.5) rotate(0 58.57994842529297 12.5)"><text x="0" y="0" font-family="Virgil, Segoe UI Emoji" font-size="20px" fill="#1971c2" text-anchor="start" style="white-space: pre;" direction="ltr" dominant-baseline="text-before-edge">Port: 8080</text></g><g transform="translate(1490 347.5) rotate(0 52.55994415283203 12.5)"><text x="0" y="0" font-family="Virgil, Segoe UI Emoji" font-size="20px" fill="#1971c2" text-anchor="start" style="white-space: pre;" direction="ltr" dominant-baseline="text-before-edge">Port: 4321</text></g><g transform="translate(510 310) rotate(0 113.63990020751953 12.5)"><text x="0" y="0" font-family="Virgil, Segoe UI Emoji" font-size="20px" fill="#1971c2" text-anchor="start" style="white-space: pre;" direction="ltr" dominant-baseline="text-before-edge">Local IP: 192.168.1.254</text></g></svg>